<svg width="78" height="48" viewBox="0 0 78 48" fill="none" xmlns="http://www.w3.org/2000/svg">
<g clip-path="url(#clip0_2083_314)">
<path fill-rule="evenodd" clip-rule="evenodd" d="M33.5224 5.46257C33.4988 4.56961 33.6669 3.65569 34.0295 2.83605C30.7876 1.99285 29.5318 6.49956 30.7639 9.36961C32.6502 13.7087 37.8257 15.492 41.9135 15.6387C39.9537 14.819 38.1882 13.638 36.6881 12.1428C34.7046 10.1421 33.617 7.82722 33.5198 5.46519L33.5224 5.46257Z" fill="#FEF9F3"/>
<path d="M39.5754 0.751542C39.5386 0.720118 39.5018 0.688694 39.4624 0.659889C38.9029 0.217335 38.1883 -0.0654796 37.4658 0.0130801C36.8537 0.0811652 36.281 0.371836 35.8133 0.767254C35.2774 1.2229 34.857 1.82519 34.547 2.45105C34.195 3.16333 33.9901 3.94107 33.9244 4.7319C33.9034 4.999 33.8955 5.26611 33.9034 5.53321C33.9113 5.75841 33.927 5.98362 33.9533 6.20621C34.0242 6.80326 34.1635 7.39246 34.3605 7.96071C34.5575 8.52634 34.8124 9.07102 35.1145 9.58689C35.4087 10.0871 35.7503 10.5637 36.1207 11.0114C36.4832 11.4488 36.8747 11.8599 37.2898 12.2501C37.4553 12.4046 37.6234 12.5591 37.7968 12.7057C37.9702 12.8524 38.1357 13.0173 38.3196 13.1404C38.9633 13.6563 39.6306 14.1198 40.3452 14.5283C40.5448 14.6435 42.7569 15.6753 42.7569 15.6805C43.3112 12.6743 43.235 9.49 42.5309 6.51521C42.347 5.74008 42.1211 4.9702 41.8242 4.22912C41.5352 3.50113 41.178 2.79671 40.7497 2.13943C40.4424 1.66807 40.0929 1.22028 39.6726 0.840576C39.6384 0.809152 39.6043 0.780347 39.5701 0.751542H39.5754Z" fill="#FEF9F3"/>
<path fill-rule="evenodd" clip-rule="evenodd" d="M55.2883 17.8042C54.6342 16.4792 53.7409 15.2982 52.6769 14.3083V14.3555C51.7574 15.416 48.9753 14.1381 47.2098 14.6933C47.2098 14.5257 47.1862 14.379 47.1363 14.2114C45.9278 15.8978 45.9751 18.8884 47.4016 21.7086C49.2144 25.2281 54.9967 25.8304 55.8899 25.2281C56.7858 24.6258 57.0984 21.3237 55.2857 17.8042H55.2883ZM54.7077 19.4906C54.2716 19.7551 53.1367 19.6844 52.7242 19.0088C52.3118 18.3332 52.627 17.105 53.0395 16.8379C53.452 16.5735 54.1508 16.8851 54.5632 17.5371C54.9757 18.1892 55.1202 19.2235 54.7077 19.4906Z" fill="#FEF9F3"/>
<path fill-rule="evenodd" clip-rule="evenodd" d="M47.2598 8.06553C43.8734 7.70415 43.8024 11.5614 45.8096 11.9464C46.8972 12.1637 47.6959 11.2708 48.9044 11.1739C50.7171 11.0063 52.2408 12.258 53.5492 12.1611C57.2009 11.8966 56.6702 5.65113 52.2198 7.09924C56.7175 4.88124 57.9995 12.4282 53.4283 12.6429C52.0018 12.7163 50.6724 11.6793 49.3904 11.6793C48.5444 11.6793 48.0348 12.0407 46.9235 12.3549C47.0916 13.0305 47.4305 13.5359 47.3596 14.4524C48.5208 14.0413 50.8169 14.1644 52.3906 14.5965C51.4474 13.7035 49.2222 13.6799 47.7221 13.9706C48.8833 13.0541 52.0517 13.2714 52.7531 14.476C51.8336 15.5366 48.9805 14.1382 47.2151 14.6934C47.1678 13.8501 46.779 13.3421 46.779 12.4753C42.6911 13.1745 43.6107 6.73787 46.8998 7.82199C46.9734 4.47011 53.6726 4.92838 51.5446 8.68877C53.3337 5.53067 47.265 4.71103 47.265 8.06291L47.2598 8.06553Z" fill="#FEF9F3"/>
<path fill-rule="evenodd" clip-rule="evenodd" d="M41.4301 28.5565C38.9632 25.5424 37.6812 21.7349 37.7784 17.8279C37.7784 17.4167 37.802 17.0318 37.8519 16.6233C37.4158 16.6469 36.9561 16.6966 36.5226 16.7909C35.7003 16.9349 34.878 17.1523 34.0794 17.4429V17.731C33.9585 21.9025 35.1197 26.0007 37.4421 29.4704C37.8283 29.4469 38.2408 29.3971 38.6506 29.3264C39.5937 29.1588 40.5369 28.9153 41.4327 28.5539L41.4301 28.5565Z" fill="#FEF9F3"/>
<path fill-rule="evenodd" clip-rule="evenodd" d="M30.8611 19.2261C29.0221 20.7213 28.0317 22.6722 28.3469 24.6022C28.7331 26.8202 30.7665 28.483 33.4988 29.1822C31.9015 26.0974 31.0082 22.6984 30.8637 19.2261H30.8611Z" fill="#FEF9F3"/>
<path fill-rule="evenodd" clip-rule="evenodd" d="M30.8611 19.2261C29.0221 20.7213 28.0317 22.6722 28.3469 24.6022C28.7331 26.8202 30.7665 28.483 33.4988 29.1822C31.9015 26.0974 31.0082 22.6984 30.8637 19.2261H30.8611Z" fill="#FEF9F3"/>
<path fill-rule="evenodd" clip-rule="evenodd" d="M27.5719 24.3848L21.2825 27.0113L28.0054 26.024C27.8373 25.8067 27.7401 25.5658 27.6665 25.3013C27.5929 25.0132 27.5457 24.699 27.5693 24.3848H27.5719Z" fill="#FEF9F3"/>
<path fill-rule="evenodd" clip-rule="evenodd" d="M46.4139 24.2409C45.011 22.4811 44.2622 20.2867 44.3095 18.0451C43.3191 17.4428 42.2052 17.0081 41.0676 16.7908C41.0203 17.1521 40.994 17.5135 40.994 17.8985C40.8968 21.2006 42.058 24.432 44.2596 26.9145C45.1791 26.2153 45.9278 25.2752 46.4112 24.2382L46.4139 24.2409Z" fill="#FEF9F3"/>
<path fill-rule="evenodd" clip-rule="evenodd" d="M47.6223 6.25586C47.7195 6.18253 47.8167 6.11183 47.9113 6.03851C47.9349 5.38646 48.0085 4.7606 48.1057 4.13474C49.217 3.19465 49.485 0.90332 48.5418 0.90332C47.5987 0.90332 47.7432 2.68663 47.7931 3.72361C47.7694 4.56682 47.6959 5.41003 47.6249 6.25586H47.6223Z" fill="#FEF9F3"/>
<path fill-rule="evenodd" clip-rule="evenodd" d="M51.7102 6.44951C52.0491 6.03839 52.4353 5.67701 52.8714 5.36539C53.741 4.7631 55.8217 4.44886 55.0493 3.43806C54.2743 2.42464 53.2602 4.28127 52.6297 5.05377C52.2435 5.5356 51.9046 5.92055 51.613 6.28454C51.6366 6.33168 51.6603 6.405 51.7102 6.45213V6.44951Z" fill="#FEF9F3"/>
<path d="M3.53089 36.8261C4.13513 36.8261 4.71573 36.8733 5.29633 37.0199C5.73244 37.1168 6.14227 37.3341 6.50482 37.5986C6.82008 37.8395 7.06177 38.1538 7.20627 38.5152C7.35076 38.9001 7.42432 39.3112 7.42432 39.7197C7.42432 39.9842 7.37703 40.2513 7.30347 40.4922C7.20627 40.7332 7.08542 40.9741 6.91728 41.1914C6.74914 41.4088 6.53109 41.6261 6.28939 41.7701C6.0004 41.9639 5.68515 42.0844 5.36989 42.1813C6.04769 42.2782 6.69923 42.5662 7.20889 43.0481C7.62136 43.5063 7.86305 44.1086 7.81314 44.7109C7.81314 45.1456 7.73958 45.5777 7.54779 45.9888C7.37966 46.3738 7.11169 46.7116 6.77279 46.976C6.41024 47.2641 5.99778 47.5076 5.53803 47.6281C5.00472 47.7957 4.45039 47.869 3.89343 47.8454H0V36.8052H3.53089V36.8287V36.8261ZM1.5001 38.0071V41.7675H3.4836C3.84614 41.7675 4.23233 41.7204 4.59488 41.6235C4.88387 41.5502 5.12819 41.4062 5.36989 41.2386C5.5643 41.071 5.73244 40.8772 5.82964 40.6363C5.92684 40.3954 5.97413 40.1309 5.97413 39.8638C5.97413 39.2117 5.77972 38.7299 5.39353 38.4418C5.00734 38.1538 4.4031 37.9836 3.55453 37.9836H1.49747V38.0071H1.5001ZM3.89343 46.6854C4.25598 46.6854 4.64217 46.6382 5.00472 46.5413C5.2937 46.468 5.53803 46.324 5.75345 46.1302C5.94786 45.9626 6.09235 45.7453 6.18956 45.5044C6.28676 45.2399 6.33405 44.9728 6.33405 44.7083C6.3577 44.1767 6.13964 43.6713 5.72981 43.3571C5.31735 43.0193 4.7131 42.8517 3.89081 42.8517H1.5001V46.7089L3.89343 46.6854Z" fill="#FEF9F3"/>
<path d="M16.8584 46.6619V47.8664H10.0147V36.8262H16.8348V38.0308H11.5148V41.6943H15.8207V42.8753H11.5148V46.6357L16.8611 46.6592L16.8584 46.6619Z" fill="#FEF9F3"/>
<path d="M25.7828 46.6619V47.8664H18.9391V36.8262H25.7592V38.0308H20.4392V41.6943H24.7451V42.8753H20.4392V46.6357L25.7854 46.6592L25.7828 46.6619Z" fill="#FEF9F3"/>
<path d="M37.8021 42.4196C37.8021 43.1921 37.6812 43.9856 37.4159 44.711C37.1742 45.363 36.8116 45.9653 36.3519 46.4707C35.8921 46.9525 35.3352 47.3375 34.7073 47.6046C33.3517 48.1362 31.8279 48.1362 30.4513 47.6046C29.8234 47.3401 29.2665 46.9787 28.8067 46.4707C28.3233 45.9653 27.9608 45.363 27.7427 44.711C27.2357 43.2157 27.2357 41.6262 27.7427 40.1309C27.9844 39.4789 28.347 38.8766 28.8067 38.3712C29.2665 37.8893 29.8234 37.5044 30.4513 37.2373C31.1291 36.9728 31.8542 36.8262 32.5793 36.8262C33.3044 36.8262 34.0295 36.9466 34.7073 37.2111C35.3352 37.4756 35.8921 37.8632 36.3519 38.345C36.8116 38.8504 37.1742 39.4527 37.4159 40.1047C37.6812 40.8772 37.8283 41.6471 37.8021 42.4196ZM36.9798 42.4196C36.9798 41.7204 36.8826 41.0213 36.6645 40.3692C36.4701 39.7905 36.1811 39.2851 35.7686 38.8268C35.3824 38.4157 34.8991 38.0805 34.3657 37.8632C33.2045 37.4049 31.9461 37.4049 30.7849 37.8632C30.2516 38.0805 29.7682 38.4183 29.382 38.8268C28.9696 39.2851 28.6806 39.7905 28.4862 40.3692C28.0501 41.6943 28.0501 43.1424 28.4862 44.4674C28.6806 45.0461 28.9932 45.5515 29.382 46.0098C29.7682 46.4209 30.2516 46.7561 30.7849 46.9735C31.9461 47.4082 33.2045 47.4082 34.3657 46.9735C34.8991 46.7561 35.3824 46.4183 35.7686 46.0098C36.1811 45.5515 36.4701 45.0461 36.6645 44.4674C36.8826 43.8154 37.0034 43.1162 36.9798 42.417V42.4196Z" fill="#FEF9F3"/>
<path d="M47.8877 47.8664H47.2099C47.1363 47.8664 47.0654 47.8664 46.9918 47.8193C46.9182 47.7957 46.871 47.7224 46.8237 47.6752L43.2928 43.2392C43.2455 43.1921 43.2192 43.1423 43.1719 43.0952C43.1246 43.0481 43.0747 43.0219 43.0274 42.9983C42.9539 42.9747 42.9066 42.9512 42.833 42.9512C42.7358 42.9512 42.6386 42.9276 42.5677 42.9276H41.1175V47.869H40.3188V36.9492H43.1246C44.383 36.9492 45.3262 37.1901 45.9541 37.672C46.582 38.1538 46.8972 38.8766 46.8972 39.8166C46.8972 40.2016 46.8237 40.5892 46.6792 40.9741C46.5347 41.3119 46.3166 41.6261 46.0513 41.8906C45.7623 42.1551 45.4234 42.3725 45.0608 42.5165C44.6484 42.6841 44.2149 42.8045 43.7552 42.8543C43.876 42.9276 43.9969 43.0481 44.0941 43.1685L47.8903 47.869L47.8877 47.8664ZM43.0274 42.3463C43.4635 42.3463 43.897 42.2991 44.3331 42.1787C44.6957 42.0818 45.0109 41.9142 45.2999 41.6733C45.5653 41.4559 45.7597 41.1914 45.9042 40.9008C46.0487 40.5865 46.1222 40.2252 46.1222 39.8638C46.1222 39.0913 45.8805 38.5126 45.3735 38.1276C44.8664 37.7427 44.1151 37.5725 43.1483 37.5725H41.1175V42.3463H43.0274Z" fill="#FEF9F3"/>
<path d="M58.94 42.4195C58.94 43.192 58.8192 43.9619 58.5538 44.6847C58.3121 45.3367 57.9496 45.9154 57.4898 46.3973C57.0301 46.8791 56.4495 47.2405 55.8453 47.4814C55.1674 47.7459 54.4424 47.8663 53.7173 47.8663H49.7266V36.9465H53.7173C54.4424 36.9465 55.1674 37.067 55.8453 37.3315C56.4731 37.5724 57.0301 37.9338 57.4898 38.4156C57.9732 38.8974 58.3358 39.4997 58.5538 40.1282C58.8192 40.8745 58.9663 41.647 58.94 42.4195ZM58.1177 42.4195C58.1177 41.7204 58.0205 41.0447 57.8025 40.3953C57.6081 39.8402 57.2954 39.3112 56.9066 38.8765C56.5204 38.4654 56.037 38.1537 55.5037 37.9364C54.9231 37.719 54.3189 37.5986 53.7146 37.6221H50.499V47.2641H53.691C54.2952 47.2641 54.9257 47.1672 55.4801 46.9498C56.0134 46.7325 56.4968 46.4182 56.883 46.0097C57.2954 45.575 57.5844 45.0696 57.7788 44.4909C58.0205 43.8153 58.1414 43.1161 58.1177 42.4169V42.4195Z" fill="#FEF9F3"/>
<path d="M68.0589 47.217L68.0353 47.869H61.4805V36.9492H68.0353V37.6013H62.2792V42.0137H67.0685V42.6657H62.2792V47.2222H68.0589V47.217Z" fill="#FEF9F3"/>
<path d="M78 47.8664H77.3222C77.2487 47.8664 77.1777 47.8664 77.1042 47.8193C77.0306 47.7957 76.9833 47.7224 76.936 47.6752L73.4288 43.2392C73.3815 43.1921 73.3552 43.1423 73.308 43.0952C73.2607 43.0481 73.2107 43.0219 73.1635 42.9983C73.0899 42.9747 73.0426 42.9512 72.9691 42.9512C72.8719 42.9512 72.7746 42.9276 72.7037 42.9276H71.2772V47.869H70.4785V36.9492H73.2843C74.5427 36.9492 75.4859 37.1901 76.1138 37.672C76.7416 38.1538 77.0569 38.8766 77.0569 39.8166C77.0569 40.2016 76.9833 40.5892 76.8388 40.9505C76.6944 41.2883 76.4763 41.6026 76.211 41.8671C75.922 42.1315 75.5831 42.3489 75.2205 42.4929C74.8081 42.6605 74.3746 42.781 73.9148 42.8307C74.0357 42.904 74.1565 43.0245 74.2537 43.145L78.0027 47.869L78 47.8664ZM73.1372 42.3463C73.5733 42.3463 74.0068 42.2991 74.4429 42.1787C74.8054 42.0818 75.1207 41.9142 75.4097 41.6733C75.675 41.4559 75.8694 41.1914 76.0139 40.9008C76.1584 40.5865 76.232 40.2252 76.232 39.8638C76.232 39.0913 75.9903 38.5126 75.4832 38.1276C74.9762 37.7427 74.2248 37.5725 73.258 37.5725H71.2509V42.3463H73.1372Z" fill="#FEF9F3"/>
</g>
<defs>
<clipPath id="clip0_2083_314">
<rect width="78" height="48" fill="white"/>
</clipPath>
</defs>
</svg>
